<?xml version="1.0" encoding="UTF-8"?>
<svg version="1.1" viewBox="0 0 744.09 1052.4" xmlns="http://www.w3.org/2000/svg">
 <defs>
  <filter id="d" x="-.25" y="-.25" width="1.5" height="1.5" color-interpolation-filters="sRGB">
   <feGaussianBlur result="result8" stdDeviation="7"/>
   <feComposite in="result8" in2="result8" operator="xor" result="result6"/>
   <feDisplacementMap in="SourceGraphic" in2="result6" result="result4" scale="100"/>
   <feComposite in="SourceGraphic" in2="result4" k1="1" operator="arithmetic" result="result2"/>
   <feComposite in="SourceGraphic" in2="result2" operator="in" result="fbSourceGraphic"/>
  </filter>
  <radialGradient id="f" cx="329.73" cy="216.81" r="237.86" gradientTransform="matrix(1 0 0 .80631 0 41.995)" gradientUnits="userSpaceOnUse">
   <stop stop-color="#aef" offset="0"/>
   <stop stop-color="#aef" stop-opacity="0" offset="1"/>
  </radialGradient>
  <linearGradient id="e" x1="208.78" x2="431.04" y1="244.72" y2="244.72" gradientUnits="userSpaceOnUse">
   <stop stop-color="#ffd42a" offset="0"/>
   <stop stop-color="#ffd42a" stop-opacity="0" offset="1"/>
  </linearGradient>
 </defs>
 <path d="m167.6 408.59c5e-3 -3e-3 9e-3 -5e-3 0.0138-8e-3 0.018-0.0103 0.0361-0.0207 0.0541-0.0311 0.0706-0.0407 0.14101-0.0818 0.21131-0.12307 0.27285-0.16016 0.54408-0.32308 0.81437-0.48753 3e-5 -2e-5 6e-5 -3e-5 9e-5 -5e-5 1.0209-0.62116 2.0284-1.2643 3.0268-1.921 3e-5 -1e-5 6e-5 -3e-5 8e-5 -5e-5 3.5437-2.331 6.973-4.8346 10.296-7.4714 2e-5 -2e-5 5e-5 -4e-5 7e-5 -6e-5 10.191-8.0873 19.444-17.453 26.751-28.217 2e-5 -2e-5 3e-5 -5e-5 5e-5 -8e-5 4.2279-6.2276 7.7754-12.938 10.28-20.036 2.6604-7.5396 4.1058-15.519 4.0994-23.514-7e-3 -9.0965-1.8952-18.151-5.1691-26.638 0-1e-5 -1e-5 -3e-5 -1e-5 -4e-5 -4.1234-10.689-10.334-20.488-17.525-29.407-1e-5 -1e-5 -2e-5 -3e-5 -3e-5 -4e-5 -3.7051-4.595-7.8362-8.8308-12.09-12.923-1e-5 -2e-5 -2e-5 -3e-5 -4e-5 -4e-5 -5.087-4.8931-10.386-9.5614-15.782-14.112-11.676-9.8467-23.802-19.148-36.102-28.202-10.292-7.5746-20.721-14.962-31.258-22.191l-13.339-9.0012 0.01781 6e-3c0.0172 6e-3 0.03441 0.0124 0.05163 0.0186 1.6e-5 1e-5 3.1e-5 1e-5 4.6e-5 2e-5 0.06752 0.0243 0.1351 0.0484 0.20271 0.0724 0.26286 0.0934 0.52618 0.1856 0.78975 0.27704 1.6e-5 1e-5 3.1e-5 1e-5 4.7e-5 2e-5 0.99923 0.34667 2.002 0.683 3.0069 1.0128 1.6e-5 0 3.1e-5 1e-5 4.7e-5 1e-5 1.5e-5 1e-5 3.1e-5 1e-5 4.6e-5 2e-5 3.5909 1.1786 7.209 2.2739 10.846 3.3013 1e-5 0 3e-5 1e-5 4e-5 1e-5 11.159 3.1522 22.505 5.6976 33.999 7.2295 6.3452 0.84566 12.74 1.3764 19.141 1.3708 6.0084-5e-3 12.041-0.47045 17.894-1.8301 1e-5 0 3e-5 -1e-5 4e-5 -1e-5 5.2109-1.2106 10.313-3.1637 14.64-6.3097 4.1781-3.0378 7.4803-7.2645 9.3808-12.068 1e-5 -2e-5 1e-5 -3e-5 2e-5 -5e-5 2.2837-5.7721 3.514-11.935 3.9027-18.13 0.39882-6.357-0.0636-12.751-1.0901-19.037-2.0742-12.702-6.3587-24.965-11.646-36.698-4.3626-9.6817-9.4471-19.033-15.079-28.036-1.7354-2.774-3.5236-5.5153-5.3814-8.2089-1e-5 -1.4e-5 -2e-5 -2.7e-5 -3e-5 -4e-5 -0.50974-0.7391-1.0247-1.4746-1.5482-2.2041-2e-5 -2.7e-5 -4e-5 -5.3e-5 -6e-5 -7.9e-5 -0.13694-0.19082-0.27447-0.38123-0.41304-0.57087-0.0355-0.04862-0.0711-0.09719-0.10686-0.14566-1e-5 -1.3e-5 -2e-5 -2.7e-5 -3e-5 -4e-5l-3e-5 -3.9e-5c-9e-3 -0.01234-0.0182-0.02467-0.0273-0.03699l-3e-5 -4e-5 -9e-3 -0.01274-3e-5 -3.9e-5c8e-3 0.0079 0.0116 0.01176 0.0154 0.01562 0.0149 0.01513 0.0299 0.03024 0.0448 0.04534 0.0587 0.05928 0.11754 0.11841 0.17646 0.17747 0.22891 0.22944 0.459 0.4577 0.68974 0.6853 0.87298 0.86108 1.7554 1.7126 2.6436 2.558 3.1573 3.0051 6.3883 5.9325 9.6772 8.793 9.9437 8.6488 20.404 16.737 31.585 23.714 6.0456 3.7724 12.31 7.2157 18.862 10.018 1e-5 0 3e-5 1e-5 4e-5 2e-5 6.0466 2.586 12.36 4.6512 18.878 5.5231 5.8133 0.77767 11.844 0.53724 17.371-1.4231 1e-5 0 3e-5 -1e-5 4e-5 -1e-5 5.7278-2.0313 10.683-5.9686 14.342-10.821l54.286-78.571 1e-3 0.01897c1e-3 0.01834 2e-3 0.03667 3e-3 0.05501 4e-3 0.07192 9e-3 0.14383 0.0139 0.21573v4.9e-5c0.0186 0.27963 0.0389 0.55915 0.0602 0.83858 0.0808 1.0599 0.17579 2.1187 0.27953 3.1766 0 1.6e-5 0 3.2e-5 1e-5 4.8e-5v4.9e-5c0.37132 3.7865 0.85573 7.5617 1.4298 11.323 1.776 11.636 4.3857 23.165 8.2164 34.295 1e-5 3.1e-5 2e-5 6.2e-5 3e-5 9.2e-5 2.1599 6.2753 4.7193 12.423 7.8576 18.271 3.06 5.702 6.6783 11.133 11.071 15.885 1e-5 2e-5 2e-5 3e-5 4e-5 4e-5 4.2219 4.5672 9.1994 8.4843 14.82 11.148 5.9353 2.8125 12.537 4.1419 19.104 4.0598 15.296-0.1912 30.463-2.9511 45.304-6.6608 14.926-3.7309 29.569-8.536 43.967-13.959 11.238-4.2326 22.331-8.8507 33.26-13.827l13.184-6.2669c-0.0134 0.0089-0.0199 0.01325-0.0265 0.01761-3e-5 1.8e-5 -6e-5 3.6e-5 -8e-5 5.4e-5 -0.0258 0.01717-0.0516 0.03437-0.0774 0.05157-3e-5 1.8e-5 -5e-5 3.6e-5 -8e-5 5.4e-5 -0.10162 0.06775-0.20313 0.13567-0.30459 0.20367-2e-5 1.8e-5 -5e-5 3.6e-5 -8e-5 5.4e-5 -0.3943 0.26429-0.78773 0.52988-1.1807 0.79619-2e-5 1.8e-5 -5e-5 3.7e-5 -8e-5 5.5e-5 -1.4847 1.0062-2.9623 2.0229-4.4353 3.0461-3e-5 1.9e-5 -6e-5 3.7e-5 -8e-5 5.6e-5 -5.2119 3.6203-10.366 7.323-15.471 11.094-15.151 11.193-29.911 22.945-43.781 35.692-7.1966 6.6135-14.158 13.498-20.562 20.883-2e-5 3e-5 -4e-5 5e-5 -6e-5 8e-5 -5.4845 6.3244-10.645 13.004-14.51 20.43-1.5713 3.0192-2.9159 6.1712-3.7747 9.4648-1e-5 3e-5 -2e-5 6e-5 -3e-5 1e-4 -0.735 2.8188-1.1051 5.7572-0.80881 8.6551 0 4e-5 0 7e-5 1e-5 1e-4 0.2758 2.6976 1.1708 5.3348 2.6413 7.613 1.6636 2.5774 3.9993 4.6741 6.5758 6.339 11.935 7.7119 25.449 12.724 39.221 16.225 13.434 3.4157 27.209 5.3917 41.031 6.4519 10.754 0.82495 21.551 1.0925 32.333 0.82751l1e-4 -1e-5 13.129-0.64769c-0.0178 1e-3 -0.0266 2e-3 -0.0353 3e-3 -0.0346 3e-3 -0.0691 6e-3 -0.10368 9e-3 -0.13581 0.0115-0.2716 0.0231-0.40738 0.0349h-1e-4c-0.52713 0.0456-1.0542 0.0926-1.5811 0.14033-3e-5 1e-5 -6e-5 1e-5 -9e-5 1e-5 -1.9855 0.1799-3.9699 0.3708-5.9536 0.56877-6.97 0.69556-13.931 1.4786-20.883 2.3375-3e-5 0-6e-5 1e-5 -1e-4 1e-5 -20.172 2.4921-40.29 5.5498-60.154 9.8556-3e-5 1e-5 -6e-5 1e-5 -1e-4 2e-5 -9.8645 2.1383-19.675 4.5775-29.262 7.7357-7.6515 2.5206-15.273 5.3917-22.047 9.7527-2.4798 1.5965-4.85 3.4142-6.7538 5.6667-1.51 1.7867-2.7084 3.901-3.0733 6.2116 0 3e-5 -1e-5 6e-5 -1e-5 1e-4 -0.36391 2.3047 0.17344 4.6914 1.2327 6.7704 2e-5 3e-5 3e-5 6e-5 5e-5 9e-5 1.4596 2.8647 3.7309 5.241 6.1642 7.3425 16.809 14.517 32.976 29.931 46.679 47.411 3.1707 4.0444 6.2079 8.2014 8.9065 12.575 0.65581 1.0628 1.2915 2.1385 1.8832 3.2383 0.14664 0.27256 0.29056 0.54662 0.42885 0.82351 0.0346 0.0693 0.0689 0.13883 0.10246 0.20868l0.034 0.0717-0.0176-5e-3c-0.017-5e-3 -0.0339-9e-3 -0.0509-0.0141-3e-5 -1e-5 -6e-5 -2e-5 -1e-4 -3e-5 -0.0668-0.0186-0.13368-0.0371-0.20054-0.0556-3e-5 -1e-5 -7e-5 -2e-5 -1e-4 -3e-5 -0.2616-0.0724-0.52331-0.14439-0.78508-0.21618-3e-5 -1e-5 -6e-5 -2e-5 -1e-4 -3e-5 -1.0058-0.27588-2.0125-0.54872-3.0196-0.81976-3e-5 0-6e-5 -1e-5 -9e-5 -2e-5 -3.7098-0.99837-7.4261-1.9722-11.147-2.9287-12.353-3.1754-24.755-6.1606-37.204-8.9315-15.44-3.4364-30.954-6.5598-46.572-9.0637-14.345-2.2998-28.796-4.2285-43.323-4.4361h-1e-4c-14.737 2.1714-29.21 6.0582-43.109 11.417-13.713 5.287-26.864 11.938-39.681 19.13-30.384 17.052-59.472 36.355-90.068 53.024" fill="url(#f)" fill-rule="evenodd"/>
 <path d="m317.94 132.38c-43.228 1.0952-77.938 36.508-77.938 80 0 18.445 6.2632 35.406 16.75 48.938 7.9533 12.126 21.949 34.489 28.25 51.062 3.746 9.8528 5 40 5 40s19.459 5 30 5 30-5 30-5 1.254-30.147 5-40c6.0026-15.788 18.917-36.923 26.969-49.438 11.26-13.783 18.031-31.376 18.031-50.562 0-44.183-35.817-80-80-80-0.69036 0-1.3763-0.01738-2.0625 0z" fill="#ffff95"/>
 <path d="m318.06 138.38c-39.927-0.0625-75.057 37.537-72.062 77.375 0.5869 19.088 10.339 36.149 21.406 51.219 13.132 20.749 26.976 42.849 27.463 68.184 0.93252 4.079-0.42783 9.9063 1.8471 12.762 14.673 3.9427 30.473 4.3913 45.128 0.33609 4.6679 0.82532 1.7763-3.9856 2.7122-6.4984 0.68248-17.928 4.423-35.997 14.038-51.314 8.8109-17.891 22.12-33.411 30.594-51.5 13.09-32.839-1.4024-74.758-33.094-91.188-11.566-6.4384-24.798-9.7057-38.031-9.375z" fill="url(#e)" filter="url(#d)"/>
 <path d="m317.94 132.38c-43.228 1.0952-77.938 36.508-77.938 80 0 18.445 6.2632 35.406 16.75 48.938 7.9533 12.126 21.949 34.489 28.25 51.062 3.746 9.8528 5 40 5 40s19.459 5 30 5 30-5 30-5 1.254-30.147 5-40c6.0026-15.788 18.917-36.923 26.969-49.438 11.26-13.783 18.031-31.376 18.031-50.562 0-44.183-35.817-80-80-80-0.69036 0-1.3763-0.01738-2.0625 0zm2.5938 5.9688c12.4 0.11005 24.72 3.3702 35.562 9.4062 31.691 16.43 46.184 58.349 33.094 91.188-8.4737 18.089-21.783 33.609-30.594 51.5-9.6147 15.317-13.349 33.384-14.031 51.312-0.93593 2.5129 1.9492 7.3253-2.7188 6.5-14.654 4.0552-30.452 3.5989-45.125-0.34375-2.2749-2.8552-0.91123-8.671-1.8438-12.75-0.4867-25.335-14.336-47.438-27.469-68.188-11.067-15.07-20.819-32.131-21.406-51.219-2.9941-39.838 32.136-77.438 72.062-77.375 0.8271-0.02067 1.6421-0.03859 2.4688-0.03125z"/>
 <path d="m290 355.36 9.3928 2.5039c6.7678 1.5029 13.675 2.496 20.607 2.496h1e-5c6.9326 0 13.839-0.99315 20.607-2.496h1e-5l9.3928-2.5039-5.0507 7.6262 2.5122 2.581 1e-5 1e-5c0.63849 0.74929 1.2385 1.5359 1.7275 2.3903 0.42405 0.7409 0.79377 1.549 0.81109 2.4025 0.0189 0.93092-0.34837 1.828-0.77778 2.6541-0.49517 0.95271-1.1143 1.8364-1.777 2.6812-0.56498 0.72018-1.1663 1.4115-1.7939 2.0779h-1e-5c-0.19587 0.208-0.39435 0.41355-0.59623 0.61572-0.0561 0.0562-0.11245 0.11209-0.16922 0.16758h-1e-5c-0.0152 0.0148-0.0304 0.0297-0.0457 0.0444h-1e-5c-6e-3 5e-3 -0.0115 0.0111-0.0171 0.0165l2.9876 2.3918c0.6894 0.65745 1.3459 1.3647 1.8217 2.1901 0.37756 0.65504 0.64489 1.4572 0.36767 2.1606-0.85917 2.18-2.2985 4.1342-4.166 5.5495-1.9562 1.4826-4.2886 2.4021-6.666 3.0128-6.2631 1.6089-12.828 1.4884-19.294 1.4884h-1e-5c-6.4009 0-12.903 0.11092-19.093-1.519-2.3455-0.61761-4.6404-1.5469-6.5698-3.0166-1.8619-1.4182-3.3067-3.3564-4.2111-5.5151v-1e-5c-0.31105-0.7424-0.0568-1.6023 0.31656-2.3154 0.46794-0.89379 1.1289-1.6728 1.8276-2.4006l3.0328-2.6577-1e-5 -1.5e-4 -2.6044-2.6719c-0.65824-0.77397-1.276-1.5874-1.7745-2.4727v-1e-5c-0.43095-0.76526-0.80301-1.6033-0.79798-2.4816 5e-3 -0.85522 0.37648-1.6671 0.80461-2.4074 0.49529-0.85648 1.1059-1.6417 1.7554-2.388l2.5662-2.5732-5.1262-7.6314" fill-rule="evenodd"/>
 <path d="m294 196.97c-0.65856 0.0111-1.2724 0.15253-1.8438 0.42976-1.1428 0.55445-1.9876 1.5891-2.625 2.8855-1.2748 2.5929-1.8296 6.4085-1.9375 11.174-0.21578 9.5304 1.4437 22.842 4.0625 36.775s6.1971 28.448 9.8438 40.305c1.8233 5.9286 3.6538 11.213 5.4062 15.41 1.3143 3.1478 2.5604 5.6998 3.7812 7.5208-0.98278 0.14481-1.9351 0.30346-2.8125 0.49115-1.4756 0.31568-2.5284 1.4261-3.0938 2.7934-0.56539 1.3673-0.74341 3.0451-0.71875 4.9422 0.0493 3.7942 0.97806 8.4857 2.1875 13.138 2.4189 9.3053 5.9688 18.326 5.9688 18.326l1.875-0.70603s-3.5269-8.9273-5.9062-18.081c-1.1897-4.5766-2.0796-9.2161-2.125-12.709-0.0227-1.7462 0.16114-3.2041 0.5625-4.1748s0.8903-1.4257 1.6875-1.5962c4.412-0.94386 10.728-1.363 16.125-1.0437 2.6983 0.15964 5.1765 0.49641 7.0312 1.013s2.9915 1.2827 3.25 1.7804c0.0635 0.12231 0.22687 0.97864 0.1875 2.1488-0.0394 1.1701-0.18031 2.6957-0.4375 4.4204-0.51438 3.4494-1.3997 7.7218-2.3438 11.88-1.8881 8.3159-4.0312 16.177-4.0312 16.177l1.9375 0.49115s2.1313-7.8707 4.0312-16.239c0.94997-4.184 1.8476-8.4968 2.375-12.033 0.26367-1.7682 0.42525-3.3424 0.46875-4.6352s0.0353-2.2503-0.40625-3.1004c-0.75163-1.4472-2.3934-2.1847-4.4688-2.7627-0.56377-0.15702-1.178-0.30426-1.8125-0.42976 0.53156-2.1829 6.9119-28.479 12.062-55.562 2.6864-14.126 4.9934-28.304 5.875-39.047 0.4408-5.3715 0.54914-9.8712 0.125-13.169-0.21207-1.6489-0.53744-3.0004-1.0938-4.052-0.55631-1.0516-1.5017-1.8701-2.6562-1.9646-4.689-0.38384-9.3266 2.426-13.375 6.6305-1.1317 1.1754-2.0934 2.6776-3.125 4.052-0.50475-1.1965-0.92327-2.5332-1.5-3.5915-1.1941-2.1914-2.5518-4.0525-4.0938-5.4027-1.5419-1.3501-3.3157-2.1795-5.25-2.1795-1.7635 0-3.4816 0.82974-5.125 2.1488-1.6434 1.319-3.233 3.1415-4.75 5.3106-0.66351 0.94873-1.2182 2.1572-1.8438 3.2232-0.1853-0.33032-0.34251-0.7229-0.53125-1.0437-2.6781-4.5518-5.6412-8.1308-8.8125-9.5468l-0.0312-0.0307h-0.0312c-0.69641-0.24194-1.4039-0.37951-2.0625-0.36836zm0.0312 1.9646c0.3762-6e-3 0.80842 0.0738 1.3125 0.24558 0.0117 4e-3 0.0195-4e-3 0.0312 0 2.3743 1.0908 5.2542 4.3697 7.8125 8.7179 0.38345 0.65174 0.69293 1.4546 1.0625 2.1488-1.7354 3.293-3.3142 6.833-4.4375 10.498-1.758 5.7364-2.6033 11.456-1.7188 15.962 0.44229 2.253 1.3468 4.2298 2.8438 5.6482 1.4969 1.4184 3.5924 2.2364 6.1562 2.2409 1.9227 3e-3 3.5105-0.79937 4.5625-2.1181 1.052-1.3187 1.6173-3.0916 1.8438-5.1264 0.45297-4.0695-0.38667-9.3227-1.9688-14.735-1.2423-4.2496-3.0246-8.4399-5-12.309 0.80328-1.4576 1.5726-2.9996 2.4375-4.2362 1.4414-2.0611 2.9443-3.7632 4.375-4.9115s2.7501-1.719 3.8438-1.719c1.3487 0 2.6497 0.56072 3.9375 1.6883 1.2878 1.1276 2.5054 2.8262 3.625 4.8808 0.70493 1.2937 1.2721 2.9106 1.875 4.4511-2.0821 3.0744-3.9351 6.369-5.3125 9.7923-2.3141 5.7516-3.4921 11.561-2.6562 16.177 0.41794 2.308 1.3604 4.3388 2.9688 5.8017s3.861 2.3067 6.6562 2.3637c1.5063 0.0306 2.7117-1.0495 3.4062-2.4558 0.69459-1.4063 1.0547-3.2514 1.25-5.4334 0.39056-4.364-0.0176-10.082-1.125-15.809-0.68366-3.5355-1.6942-6.9403-2.875-10.161 1.1882-1.6727 2.3677-3.4181 3.6875-4.7887 3.8244-3.9718 8.0016-6.3234 11.75-6.0166 0.36064 0.0295 0.65904 0.21734 1.0312 0.9209 0.37221 0.70357 0.67966 1.8578 0.875 3.3767 0.39069 3.0376 0.34139 7.4667-0.0937 12.77-0.87039 10.606-3.195 24.739-5.875 38.832-5.1808 27.242-11.628 53.837-12.062 55.623-1.1704-0.16101-2.4026-0.29234-3.6875-0.36836-3.7747-0.22332-7.9158-0.0976-11.656 0.30697-1.1807-1.5534-2.6046-4.3706-4.125-8.0119-1.7161-4.1101-3.5647-9.3087-5.375-15.195-3.6206-11.773-7.1765-26.263-9.7812-40.121-2.6048-13.858-4.241-27.112-4.0312-36.376 0.10487-4.6317 0.6925-8.2575 1.7188-10.345 0.51312-1.0437 1.1045-1.6666 1.7188-1.9646 0.30362-0.14731 0.6238-0.23946 1-0.24558zm11.312 13.261c1.6627 3.4382 3.2026 7.085 4.2812 10.775 1.5371 5.258 2.2778 10.349 1.875 13.967-0.20138 1.8092-0.69208 3.2488-1.4062 4.1441s-1.5885 1.3531-3 1.3507c-2.1583-4e-3 -3.6678-0.63326-4.7812-1.6883s-1.861-2.6233-2.25-4.6046c-0.7779-3.9625-0.0436-9.4949 1.6562-15.042 0.93931-3.065 2.2271-6.071 3.625-8.9021zm22.188 0.15349c0.93912 2.7707 1.733 5.7212 2.3125 8.7179 1.0794 5.5818 1.4906 11.171 1.125 15.256-0.18281 2.0426-0.58036 3.7186-1.0938 4.758-0.51339 1.0394-0.96814 1.3628-1.5625 1.3507-2.4212-0.0493-4.0951-0.73454-5.3125-1.8418s-2.0117-2.6906-2.375-4.6966c-0.72651-4.012 0.30586-9.6026 2.5312-15.134 1.1661-2.8982 2.6713-5.7458 4.375-8.411z" color="#000000" fill="#808080" fill-opacity=".59004" style="block-progression:tb;text-indent:0;text-transform:none"/>
 <path transform="matrix(.9339 .69497 -.74111 .87575 162.26 -200.44)" d="m325.71 205.22c0 28.403-10.548 54.4-23.214 51.429-8.7054-2.0425-28.82-29.966-25.309-57.923 3.3936-27.018 12.488-44.934 25.309-44.934s23.214 23.025 23.214 51.429z" fill="#fff" fill-opacity=".57088"/>
 <path d="m342.59 364.19c-0.68337-0.0248-1.9502 0.32721-2.3125 0.4375-0.12309 0.0297-0.24044 0.083-0.34375 0.15625-11.691 7.656-26.749 10.632-37.781 11.906 0 0 3.3265 0.16782 7.5625 0.0625s9.3615-0.4775 13.125-1.5938c7.4207-2.2009 18.125-8.6562 18.125-8.6562 0.46366-0.2001 2.2363-1.6821 2.0625-2.1562-0.04346-0.11853-0.20971-0.14798-0.4375-0.15625zm0 14c-0.68337-0.02481-1.9502 0.32721-2.3125 0.4375-0.12309 0.0297-0.24044 0.083-0.34375 0.15625-11.691 7.656-26.749 10.632-37.781 11.906 0 0 3.3265 0.16782 7.5625 0.0625s9.3615-0.4775 13.125-1.5938c7.4207-2.2009 18.125-8.6562 18.125-8.6562 0.46366-0.2001 2.2363-1.6821 2.0625-2.1562-0.04346-0.11853-0.20971-0.14798-0.4375-0.15625z" color="#000000" fill="#fff" style="block-progression:tb;text-indent:0;text-transform:none"/>
</svg>
